<svg width="766" height="1024" viewBox="0 0 766 1024" fill="none" xmlns="http://www.w3.org/2000/svg">
<rect width="558.291" height="1175.03" rx="279.145" transform="matrix(-0.707107 -0.707107 -0.707107 0.707107 1340 103.735)" fill="url(#paint0_linear_0_1)"/>
<rect width="441.938" height="986.793" rx="220.969" transform="matrix(-0.707107 -0.707107 -0.707107 0.707107 1207.01 154.452)" fill="url(#paint1_linear_0_1)"/>
<rect width="284.576" height="635.422" rx="142.288" transform="matrix(-0.707107 -0.707107 -0.707107 0.707107 710.997 -111.91)" fill="#0047FF"/>
<rect width="244.472" height="545.876" rx="122.236" transform="matrix(-0.707107 -0.707107 -0.707107 0.707107 508.861 950.57)" fill="url(#paint2_linear_0_1)"/>
<rect width="129.815" height="289.861" rx="64.9076" transform="matrix(-0.707107 -0.707107 -0.707107 0.707107 886.995 804.15)" fill="url(#paint3_linear_0_1)"/>
<defs>
<linearGradient id="paint0_linear_0_1" x1="263.917" y1="1171.51" x2="306.697" y2="466.878" gradientUnits="userSpaceOnUse">
<stop stop-color="#6F97FF"/>
<stop offset="1" stop-color="#E4EFFF"/>
</linearGradient>
<linearGradient id="paint1_linear_0_1" x1="214.226" y1="319.653" x2="-109.95" y2="677.324" gradientUnits="userSpaceOnUse">
<stop stop-color="#3988FF"/>
<stop offset="1" stop-color="#0047FF"/>
</linearGradient>
<linearGradient id="paint2_linear_0_1" x1="153.04" y1="325.475" x2="213.144" y2="46.8745" gradientUnits="userSpaceOnUse">
<stop stop-color="#00C2FF"/>
<stop offset="1" stop-color="#3988FF"/>
</linearGradient>
<linearGradient id="paint3_linear_0_1" x1="22.3761" y1="272.48" x2="116.775" y2="51.509" gradientUnits="userSpaceOnUse">
<stop stop-color="#00C2FF"/>
<stop offset="1" stop-color="#0085FF"/>
</linearGradient>
</defs>
</svg>
